<?xml version="1.0" encoding="utf-8"?>
<!-- Generator: Adobe Illustrator 27.0.0, SVG Export Plug-In . SVG Version: 6.00 Build 0)  -->
<svg version="1.1" id="Layer_1" xmlns="http://www.w3.org/2000/svg" xmlns:xlink="http://www.w3.org/1999/xlink" x="0px" y="0px"
	 viewBox="0 0 175 145" style="enable-background:new 0 0 175 145;" xml:space="preserve">
<style type="text/css">
	.st0{fill:#454540;}
</style>
<g>
	<g>
		<path class="st0" d="M28.4,87.4h-0.4c0,0,0-0.1,0-0.3c0-0.2,0-0.3,0.1-0.3c2.3,0,3.2-2.2,3.2-3.9c0-2.1-1.3-3.4-3.4-3.4
			c-0.6,0-0.9,0.1-1.1,0.3c-0.1,0.2-0.4,1.5-0.4,4.8v3.5c0,4.4,0.2,5,0.5,5.1c0.4,0.2,1.1,0.3,2.1,0.4c0.1,0,0.1,0.2,0.1,0.4
			s0,0.2,0,0.2H22c0,0,0-0.1,0-0.2c0-0.2,0-0.3,0.1-0.4c1-0.1,1.4-0.2,1.7-0.4c0.3-0.1,0.5-0.7,0.5-5.1v-3.5c0-4.4-0.2-4.9-0.5-5.1
			c-0.3-0.2-0.7-0.3-1.7-0.4c0,0-0.1-0.2-0.1-0.4c0-0.1,0-0.2,0-0.2c1.1,0,2.2,0,3.2,0c0.9,0,1.9,0,2.8,0c3.5,0,5.8,1.9,5.8,4.3
			C33.7,85,31.6,87.4,28.4,87.4"/>
		<path class="st0" d="M46.9,94.2c0,0,0-0.2,0-0.4c0-0.1,0-0.2,0-0.2c0.8,0,1.3-0.2,1.3-0.6c0-0.4-0.3-1.2-1.7-4.6h-4.9
			c-1.2,3-1.4,3.9-1.4,4.5c0,0.4,0.4,0.6,1.4,0.7c0,0,0.1,0.1,0.1,0.3s0,0.3-0.1,0.3h-5.2c0,0-0.1-0.1-0.1-0.3c0-0.1,0-0.3,0.1-0.3
			c0.8,0,1.2-0.2,1.6-0.4c0.5-0.4,1-1.3,2.5-5l1.3-3.5c0.8-2,1.6-4.1,2.2-6c0-0.1,0.3-0.1,0.5-0.1c0.3,0,0.5,0,0.6,0.1
			c0.6,1.9,1.3,3.5,2,5.4l1.6,4.1c1.8,4.6,2.2,4.8,2.6,5.1c0.4,0.3,0.8,0.4,1.5,0.4c0,0,0,0.1,0,0.2c0,0.2,0,0.4,0,0.4H46.9z
			 M43.9,81.8l-2,5.5H46L43.9,81.8z"/>
		<path class="st0" d="M69.4,82c0,0-0.1,0-0.2,0c-0.2,0-0.4,0-0.4-0.1c0-0.6-0.1-1.3-0.4-1.6c-0.4-0.5-1.2-0.8-3.9-0.8
			c-0.5,0-0.9,0-1.1,0c-0.1,0.3-0.1,1.2-0.1,2.7v5.8c0,4.4,0.2,4.9,0.5,5.1c0.3,0.2,0.9,0.3,1.9,0.4c0,0,0,0.2,0,0.3
			c0,0.1,0,0.3,0,0.3h-7.1c0,0-0.1-0.1-0.1-0.3c0-0.1,0-0.3,0.1-0.3c1-0.1,1.6-0.2,1.9-0.4c0.3-0.1,0.5-0.7,0.5-5.1v-5.8
			c0-1.5,0-2.5-0.1-2.7c-0.2,0-0.7,0-1.2,0c-2.6,0-3.3,0.3-3.9,0.8c-0.4,0.4-0.6,1.1-0.8,1.7c0,0,0,0-0.1,0c-0.2,0-0.4-0.1-0.4-0.1
			l0.4-3.5c0,0,0-0.1,0.1-0.1c0.9,0.1,2.8,0.3,7.1,0.3c5.9,0,6.8-0.1,7.3-0.3c0.1,0,0.1,0,0.1,0.1C69.6,79.3,69.6,80.7,69.4,82"/>
		<path class="st0" d="M86.4,94.2c0,0-0.1-0.1-0.1-0.3c0-0.1,0-0.3,0.1-0.3c1-0.1,1.4-0.2,1.7-0.4c0.3-0.1,0.5-0.7,0.5-5.1v-1.4h-9
			v1.4c0,4.4,0.2,4.9,0.5,5.1c0.3,0.2,0.7,0.3,1.7,0.4c0,0,0.1,0.2,0.1,0.4c0,0.1,0,0.2,0,0.2h-6.7c0,0,0-0.1,0-0.3
			c0-0.1,0-0.3,0.1-0.3c1-0.1,1.4-0.2,1.7-0.4c0.3-0.1,0.5-0.7,0.5-5.1v-3.5c0-4.4-0.2-4.9-0.5-5.1c-0.3-0.2-0.7-0.3-1.7-0.4
			c-0.1,0-0.1-0.1-0.1-0.3c0-0.1,0-0.3,0-0.3h6.7c0,0,0,0.1,0,0.2c0,0.1,0,0.4-0.1,0.4c-1,0.1-1.4,0.3-1.7,0.4
			c-0.3,0.1-0.5,0.7-0.5,5.1v1.1h9v-1.1c0-4.4-0.2-4.9-0.5-5.1c-0.3-0.2-0.7-0.3-1.7-0.4c0,0-0.1-0.1-0.1-0.3c0-0.1,0-0.3,0.1-0.3
			h6.7c0,0,0,0.1,0,0.2c0,0.1,0,0.3-0.1,0.3c-0.9,0.1-1.4,0.3-1.7,0.4c-0.3,0.1-0.5,0.7-0.5,5.1v3.5c0,4.4,0.2,4.9,0.5,5.1
			c0.3,0.2,0.8,0.3,1.7,0.4c0.1,0,0.1,0.2,0.1,0.4c0,0.1,0,0.2,0,0.2H86.4z"/>
		<path class="st0" d="M119.3,79.6c-0.4,0.3-0.9,0.8-2.6,5l-1.3,3.5c-0.8,2-1.7,4.1-2.3,6c0,0.1-0.3,0.1-0.6,0.1
			c-0.3,0-0.5,0-0.5-0.1c-0.8-2.1-1.5-3.8-2.5-6l-0.5-1.3l-0.6,1.3c-0.9,2-1.8,4.1-2.6,6c0,0.1-0.3,0.1-0.6,0.1
			c-0.3,0-0.5,0-0.5-0.1c-0.7-2.1-1.3-3.8-2.1-6l-1.3-3.5c-1.6-4.3-2.1-4.8-2.5-5c-0.4-0.3-0.9-0.4-1.6-0.5c0,0-0.1-0.1-0.1-0.3
			c0-0.1,0-0.3,0.1-0.3h6c0,0,0,0.1,0,0.3c0,0.1,0,0.3,0,0.3c-0.9,0.1-1.3,0.3-1.3,0.7c0,0.5,0.3,1.2,1.6,4.8l2.3,6.7l2.6-5.8
			l-0.4-0.9c-2-4.2-2.2-4.8-2.6-5c-0.4-0.3-0.9-0.4-1.7-0.5c0,0,0-0.1,0-0.2c0-0.1,0-0.3,0-0.3h10.6c0,0,0.1,0.2,0.1,0.3
			c0,0.1,0,0.2-0.1,0.2c-0.7,0.1-1,0.2-1.4,0.5c-0.8,0.5-1.2,1.3-2.8,4.8l2.8,6.9l2.6-6.7c1.3-3.3,1.5-4.2,1.5-4.7
			c0-0.4-0.4-0.7-1.5-0.8c0,0,0-0.1,0-0.2c0-0.1,0-0.3,0-0.3h5.2c0,0,0,0.2,0,0.3c0,0.1,0,0.2,0,0.2C120,79.2,119.7,79.3,119.3,79.6
			 M109.4,79.2c-0.9,0-1.2,0.3-1.2,0.6c0,0.4,0.2,0.9,1.2,3.2l0.1,0.3c0.9-2.2,1.1-3,1.1-3.4C110.7,79.5,110.3,79.2,109.4,79.2"/>
		<path class="st0" d="M130.7,94.2c0,0,0-0.2,0-0.4c0-0.1,0-0.2,0-0.2c0.8,0,1.3-0.2,1.3-0.6c0-0.4-0.3-1.2-1.7-4.6h-4.9
			c-1.2,3-1.4,3.9-1.4,4.5c0,0.4,0.4,0.6,1.4,0.7c0,0,0.1,0.1,0.1,0.3s0,0.3-0.1,0.3h-5.2c0,0-0.1-0.1-0.1-0.3c0-0.1,0-0.3,0.1-0.3
			c0.8,0,1.2-0.2,1.6-0.4c0.5-0.4,1-1.3,2.5-5l1.3-3.5c0.8-2,1.6-4.1,2.2-6c0-0.1,0.3-0.1,0.5-0.1s0.5,0,0.6,0.1
			c0.6,1.9,1.3,3.5,2,5.4l1.6,4.1c1.8,4.6,2.2,4.8,2.6,5.1c0.4,0.3,0.8,0.4,1.5,0.4c0,0,0,0.1,0,0.2c0,0.2,0,0.4,0,0.4H130.7z
			 M127.8,81.8l-2,5.5h4.1L127.8,81.8z"/>
		<path class="st0" d="M151.3,79.4c-0.6,0.3-1.1,1-2.4,3l-1.3,2.1c-0.6,0.9-1.2,1.9-1.7,2.8v0.8c0,4.4,0.2,4.9,0.5,5.1
			c0.3,0.2,0.9,0.3,1.9,0.4c0,0,0,0.2,0,0.3c0,0.1,0,0.3,0,0.3h-7.1c0,0-0.1-0.1-0.1-0.3c0-0.1,0-0.3,0.1-0.3c1-0.1,1.6-0.2,1.9-0.4
			c0.3-0.1,0.5-0.7,0.5-5.1v-0.7c-0.5-0.9-1.1-1.8-1.7-2.9l-1.4-2.1c-1.6-2.4-2-2.9-2.4-3c-0.4-0.2-0.9-0.2-1.6-0.3
			c0,0-0.1-0.1-0.1-0.3c0-0.1,0-0.3,0.1-0.3h6c0,0,0.1,0.1,0.1,0.3c0,0.1,0,0.3-0.1,0.3c-0.5,0-1.1,0-1.1,0.3c0,0.2,0.3,0.8,1.5,2.7
			l2.4,3.9l2.5-3.9c0.9-1.5,1.3-2.2,1.3-2.6c0-0.1,0-0.2-0.1-0.3c-0.2-0.1-0.5-0.2-1.2-0.3c0,0,0-0.1,0-0.2c0-0.2,0-0.4,0-0.4h5.2
			c0,0,0,0.2,0,0.3c0,0.1,0,0.3,0,0.3C152.3,79.2,151.7,79.3,151.3,79.4"/>
	</g>
	<path class="st0" d="M46.2,42.2v-5c0-0.4-0.1-0.7-0.1-0.7s0.3,0.1,0.7,0.1h3.7c2.8,0,4.5,0.4,4.5,3c0,1.7-1,3.2-4.4,3.2h-3.9
		c-0.3,0-0.7,0-0.7,0S46.2,42.6,46.2,42.2 M46.2,53.6v-5.7c0-0.4,0-0.7,0-0.7s0.3,0,0.7,0H50c2.5,0,5.6,0,5.6,3.5
		c0,2.6-2.2,3.5-5.2,3.5h-3.6c-0.3,0-0.7,0.1-0.7,0.1S46.2,54,46.2,53.6 M37.1,33.6l0,23.9c0,0.8,0,1.1-0.5,1.4
		c-0.5,0.3-1.1,0.4-2,0.5c0,0,0,0,0,0c-0.1,0-0.1,0.4,0,0.4H54c8.2,0,11.6-3.2,11.6-8.3c0-3.7-1.7-6-5.2-6.9c-0.1,0-0.1-0.1,0-0.1
		c2.2-0.7,4.2-2.3,4.2-6.2c0-5.3-3.6-7.1-11.3-7.1H34.6c-0.1,0-0.1,0.3,0,0.4c0,0,0,0,0,0c0.9,0.2,1.4,0.2,2,0.5
		C37.2,32.5,37.1,32.8,37.1,33.6"/>
	<path class="st0" d="M134.5,33.6c0-0.8,0-1,0.5-1.4c0.5-0.3,1.1-0.4,2-0.5c0,0,0,0,0,0c0.1,0,0.1-0.4,0-0.4h-14.3
		c-0.1,0-0.1,0.3,0,0.4c0,0,0,0,0,0c0.9,0.1,1.3,0.2,1.9,0.5c0.6,0.3,0.5,0.6,0.5,1.4v14.4c0,3.3-1.9,5.8-5.6,5.8
		c-3.7,0-5.6-2.5-5.6-5.8l0-14.4c0-0.8,0-1,0.5-1.4c0.5-0.3,1-0.4,1.9-0.5c0,0,0,0,0,0c0.1,0,0.1-0.4,0-0.4l-13.4,0
		c-0.1,0-0.1,0.3,0,0.4c0,0,0,0,0,0c0.5,0,0.8,0.1,1.1,0.3c0.4,0.4,0.5,0.8,0.5,1.6v14.1c0,6.8,3.7,12.6,15,12.6
		c11.3,0,15-5.8,15-12.6V33.6z"/>
	<path class="st0" d="M91.3,59.7c0.1,0,0.1-0.3,0-0.4c0,0,0,0,0,0c-0.9-0.1-1.4-0.2-2-0.5c-0.5-0.3-0.5-0.6-0.5-1.4v-9.1l9.9-14.6
		c0.5-0.8,0.9-1.2,1.3-1.6c0.1-0.1,0.3-0.2,0.4-0.3c0.4-0.2,0.6-0.3,1.1-0.3c0,0,0,0,0,0c0.1,0,0.1-0.4,0-0.4H88.2
		c-0.1,0-0.1,0.3,0,0.4c0,0,0,0,0,0c0.6,0,1.4,0,1.3,0.9c-0.1,0.9-3.9,6.4-5.3,8.5c-0.2,0.3-0.3,0.6-0.4,1c0-0.4-0.3-0.8-0.4-1
		c-1.9-2.8-5.2-7.4-5.2-8.6c-0.1-1,0.7-0.9,1.3-0.9c0,0,0,0,0,0c0.1,0,0.1-0.4,0-0.4h-14c-0.1,0-0.1,0.3,0,0.4c0,0,0,0,0,0
		c0.6,0.1,0.9,0,1.6,0.4c0.1,0,0.3,0.2,0.4,0.2c0.4,0.4,0.7,0.7,1.3,1.5l9.8,14.6l0,9.1c0,0.8,0,1.1-0.5,1.4c-0.5,0.3-1.1,0.4-2,0.5
		c0,0,0,0,0,0c-0.1,0-0.1,0.4,0,0.4H91.3z"/>
	<path class="st0" d="M35.9,67.4c-0.1,0-0.2,0.2-0.2,0.3c0,0.2,0.1,0.3,0.2,0.3h98.6c0.1,0,0.2-0.2,0.2-0.3c0-0.2-0.1-0.3-0.2-0.3
		H35.9z"/>
	<g>
		<path class="st0" d="M47.9,104.2c-0.3,0.2-0.6,0.5-1.6,3.2l-0.9,2.2c-0.5,1.3-1.1,2.6-1.5,3.8c0,0.1-0.2,0.1-0.4,0.1
			c-0.2,0-0.3,0-0.3-0.1c-0.5-1.4-1-2.4-1.6-3.8l-0.3-0.8l-0.4,0.8c-0.6,1.3-1.2,2.6-1.7,3.8c0,0.1-0.2,0.1-0.4,0.1
			c-0.2,0-0.3,0-0.3-0.1c-0.4-1.4-0.8-2.4-1.4-3.8l-0.9-2.2c-1-2.7-1.3-3.1-1.6-3.2c-0.2-0.2-0.6-0.3-1-0.3c0,0-0.1-0.1-0.1-0.2
			c0-0.1,0-0.2,0.1-0.2h3.8c0,0,0,0.1,0,0.2c0,0.1,0,0.2,0,0.2c-0.6,0.1-0.8,0.2-0.8,0.4c0,0.3,0.2,0.7,1,3.1l1.5,4.3l1.7-3.7
			l-0.3-0.5c-1.3-2.7-1.4-3.1-1.6-3.2c-0.3-0.2-0.6-0.3-1.1-0.3c0,0,0-0.1,0-0.1c0-0.1,0-0.2,0-0.2h6.8c0,0,0.1,0.1,0.1,0.2
			c0,0.1,0,0.1-0.1,0.1c-0.5,0.1-0.7,0.1-0.9,0.3c-0.5,0.3-0.8,0.8-1.8,3.1l1.8,4.4l1.7-4.3c0.8-2.1,0.9-2.7,0.9-3
			c0-0.3-0.3-0.4-0.9-0.5c0,0,0-0.1,0-0.1c0-0.1,0-0.2,0-0.2h3.4c0,0,0,0.1,0,0.2c0,0.1,0,0.1,0,0.1C48.4,104,48.1,104.1,47.9,104.2
			 M41.6,104c-0.5,0-0.7,0.2-0.7,0.4c0,0.3,0.1,0.6,0.7,2.1l0.1,0.2c0.6-1.4,0.7-1.9,0.7-2.2C42.4,104.2,42.2,104,41.6,104"/>
		<path class="st0" d="M54.7,113.7c-3,0-5.3-2.2-5.3-5c0-2.6,2.3-5.3,5.5-5.3c3,0,5.3,2.2,5.3,5C60.2,111.1,58,113.7,54.7,113.7
			 M54.6,104.1c-2.8,0-3.6,2.3-3.6,4.2c0,2.5,1.5,4.8,4,4.8c2.8,0,3.6-2.3,3.6-4.2C58.6,106.4,57.1,104.1,54.6,104.1"/>
		<path class="st0" d="M72.1,113.6c-1,0-1.7-0.1-2.4-0.5c-0.8-0.5-1.7-1.6-3-3.7h-0.6c-0.4,0-0.6,0-1.1,0v0.3c0,2.8,0.1,3.2,0.3,3.3
			c0.2,0.1,0.7,0.2,1.4,0.3c0,0,0.1,0.1,0.1,0.2c0,0.1,0,0.1,0,0.1h-4.6c0,0,0-0.1,0-0.1c0-0.1,0-0.2,0.1-0.2
			c0.6-0.1,0.9-0.1,1.1-0.3c0.2-0.1,0.3-0.5,0.3-3.3v-2.2c0-2.8-0.1-3.2-0.3-3.2c-0.2-0.1-0.5-0.2-1.1-0.3c-0.1,0-0.1-0.1-0.1-0.2
			c0-0.1,0-0.1,0-0.1c0.7,0,1.6,0,2.2,0c0.6,0,1.2,0,1.9,0c2.4,0,3.7,1.3,3.7,2.5c0,1.2-0.9,2.2-2,2.9c2.1,3.1,3.3,4.2,4.5,4.2H73
			c0,0,0.1,0.3,0.1,0.3C72.8,113.6,72.5,113.6,72.1,113.6 M66.4,104.1c-0.5,0-0.9,0.1-0.9,0.2c-0.1,0.1-0.3,1.1-0.3,3.1
			c0,0.9,0.1,1,0.1,1.1c0.2,0.1,0.5,0.3,1.2,0.3c1.2,0,2-1,2-2.2C68.5,105.2,67.9,104.1,66.4,104.1"/>
		<path class="st0" d="M81.6,113.3c-0.1,0.2-0.3,0.3-0.7,0.3c-1,0-2.1-0.1-3.4-0.1c-1,0-1.8,0-2.9,0c0,0,0-0.1,0-0.1
			c0-0.1,0-0.2,0.1-0.2c0.6-0.1,0.9-0.1,1.1-0.3c0.2-0.1,0.3-0.4,0.3-3.2v-2.3c0-2.8-0.1-3.2-0.3-3.2c-0.2-0.1-0.5-0.2-1.1-0.3
			c0,0-0.1-0.1-0.1-0.2c0-0.1,0-0.1,0-0.1h4.3c0,0,0,0.1,0,0.1c0,0.1,0,0.2-0.1,0.2c-0.6,0.1-0.9,0.2-1.1,0.3
			c-0.2,0.1-0.3,0.4-0.3,3.2v2.3c0,1.9,0.1,2.7,0.3,3c0.2,0.2,0.4,0.3,1.3,0.3c0.9,0,1.5-0.2,1.9-0.7c0.3-0.4,0.6-1.1,0.7-1.5
			c0,0,0.1,0,0.1,0c0.1,0,0.3,0,0.3,0.1C81.9,111.6,81.7,113.1,81.6,113.3"/>
		<path class="st0" d="M92.8,112.1c-1.1,1.1-2.3,1.5-4.3,1.5c-0.7,0-1.8,0-2.4,0c-0.6,0-1.4,0-2.1,0c0,0-0.1-0.1-0.1-0.2
			c0-0.1,0-0.2,0.1-0.2c0.6-0.1,0.9-0.1,1.1-0.3c0.2-0.1,0.3-0.5,0.3-3.3v-2.2c0-2.8-0.1-3.2-0.3-3.3c-0.2-0.1-0.5-0.2-1.1-0.3
			c0,0-0.1-0.1-0.1-0.2s0-0.2,0.1-0.2c0.7,0,1.6,0,2.1,0c0.6,0,2.1,0,2.8,0c3.2,0,5.6,2.1,5.6,4.9C94.5,109.8,93.8,111.1,92.8,112.1
			 M88.4,104.1c-1,0-1.2,0.1-1.3,0.3c-0.1,0.1-0.2,0.9-0.2,3v2.3c0,1.9,0.1,2.7,0.3,2.9c0.3,0.3,0.5,0.4,1.3,0.4
			c3.1,0,4.4-1.4,4.4-4.3C92.9,106.4,91.4,104.1,88.4,104.1"/>
		<path class="st0" d="M109.7,104.2c-0.3,0.2-0.6,0.5-1.6,3.2l-0.9,2.2c-0.5,1.3-1.1,2.6-1.5,3.8c0,0.1-0.2,0.1-0.4,0.1
			s-0.3,0-0.3-0.1c-0.5-1.4-1-2.4-1.6-3.8l-0.3-0.8l-0.4,0.8c-0.6,1.3-1.2,2.6-1.7,3.8c0,0.1-0.2,0.1-0.4,0.1c-0.2,0-0.3,0-0.3-0.1
			c-0.4-1.4-0.8-2.4-1.4-3.8l-0.9-2.2c-1-2.7-1.3-3.1-1.6-3.2c-0.2-0.2-0.6-0.3-1-0.3c0,0-0.1-0.1-0.1-0.2c0-0.1,0-0.2,0.1-0.2h3.8
			c0,0,0,0.1,0,0.2c0,0.1,0,0.2,0,0.2c-0.6,0.1-0.8,0.2-0.8,0.4c0,0.3,0.2,0.7,1,3.1l1.5,4.3l1.7-3.7l-0.3-0.5
			c-1.3-2.7-1.4-3.1-1.6-3.2c-0.3-0.2-0.6-0.3-1.1-0.3c0,0,0-0.1,0-0.1c0-0.1,0-0.2,0-0.2h6.8c0,0,0.1,0.1,0.1,0.2
			c0,0.1,0,0.1-0.1,0.1c-0.5,0.1-0.7,0.1-0.9,0.3c-0.5,0.3-0.8,0.8-1.8,3.1l1.8,4.4l1.7-4.3c0.8-2.1,0.9-2.7,0.9-3
			c0-0.3-0.3-0.4-0.9-0.5c0,0,0-0.1,0-0.1c0-0.1,0-0.2,0-0.2h3.4c0,0,0,0.1,0,0.2c0,0.1,0,0.1,0,0.1
			C110.1,104,109.9,104.1,109.7,104.2 M103.4,104c-0.5,0-0.7,0.2-0.7,0.4c0,0.3,0.1,0.6,0.7,2.1l0.1,0.2c0.6-1.4,0.7-1.9,0.7-2.2
			C104.2,104.2,103.9,104,103.4,104"/>
		<path class="st0" d="M112.2,113.6c0,0,0-0.1,0-0.1c0-0.1,0-0.2,0.1-0.2c0.6-0.1,1-0.1,1.2-0.3c0.2-0.1,0.3-0.4,0.3-3.2v-2.2
			c0-2.8-0.1-3.2-0.3-3.2c-0.2-0.1-0.6-0.2-1.2-0.3c0,0-0.1-0.1-0.1-0.2c0-0.1,0-0.1,0-0.1h4.6c0,0,0,0.1,0,0.1c0,0.1,0,0.2-0.1,0.2
			c-0.6,0.1-1,0.2-1.2,0.3c-0.2,0.1-0.3,0.4-0.3,3.2v2.2c0,2.8,0.1,3.2,0.3,3.2c0.2,0.1,0.6,0.2,1.2,0.3c0,0,0.1,0.1,0.1,0.2
			c0,0.1,0,0.1,0,0.1H112.2z"/>
		<path class="st0" d="M128.1,112.1c-1.1,1.1-2.3,1.5-4.3,1.5c-0.7,0-1.8,0-2.4,0c-0.6,0-1.4,0-2.1,0c0,0-0.1-0.1-0.1-0.2
			c0-0.1,0-0.2,0.1-0.2c0.6-0.1,0.9-0.1,1.1-0.3c0.2-0.1,0.3-0.5,0.3-3.3v-2.2c0-2.8-0.1-3.2-0.3-3.3c-0.2-0.1-0.5-0.2-1.1-0.3
			c0,0-0.1-0.1-0.1-0.2s0-0.2,0.1-0.2c0.7,0,1.6,0,2.1,0c0.6,0,2.1,0,2.8,0c3.2,0,5.6,2.1,5.6,4.9
			C129.8,109.8,129.1,111.1,128.1,112.1 M123.7,104.1c-1,0-1.2,0.1-1.3,0.3c-0.1,0.1-0.2,0.9-0.2,3v2.3c0,1.9,0.1,2.7,0.3,2.9
			c0.3,0.3,0.5,0.4,1.3,0.4c3.1,0,4.4-1.4,4.4-4.3C128.2,106.4,126.7,104.1,123.7,104.1"/>
		<path class="st0" d="M137.3,113.3c-0.1,0.2-0.2,0.3-0.6,0.3c-1,0-2.1-0.1-3.4-0.1c-1,0-1.7,0-2.8,0c0,0-0.1-0.1-0.1-0.2
			c0-0.1,0-0.2,0.1-0.2c0.6-0.1,0.9-0.1,1.1-0.3c0.2-0.1,0.3-0.5,0.3-3.3v-2.2c0-2.8-0.1-3.2-0.3-3.3c-0.2-0.1-0.5-0.2-1.1-0.3
			c0,0-0.1-0.1-0.1-0.2c0-0.1,0-0.2,0.1-0.2c1.2,0,3.2,0,4.2,0c1.4,0,2.1-0.1,2.6-0.1c0.1,0,0.1,0,0.1,0.1c-0.1,0.5-0.1,1.3-0.2,2.1
			c0,0-0.1,0.1-0.2,0.1c-0.1,0-0.2,0-0.2-0.1c0-0.4-0.1-0.8-0.3-1c-0.3-0.3-0.7-0.4-1.8-0.4c-0.6,0-1.1,0-1.2,0
			c-0.1,0.2-0.1,0.7-0.1,1.7v2.2h1.2c1.5,0,1.7-0.3,1.8-0.9c0,0,0.1,0,0.2,0c0.1,0,0.2,0,0.2,0c0,0.4-0.1,2.3-0.1,2.7
			c0,0-0.1,0.1-0.2,0.1c-0.1,0-0.2,0-0.2-0.1c0-0.3-0.1-0.7-0.2-0.8c-0.1-0.1-0.4-0.3-1.5-0.3h-1.1v1c0,1.9,0.1,2.8,0.3,3
			c0.2,0.2,0.4,0.3,1.4,0.3c1,0,1.5-0.2,1.8-0.5c0.2-0.2,0.4-0.5,0.5-1.1c0,0,0.1,0,0.1,0c0.1,0,0.2,0.1,0.2,0.1
			C137.5,112.2,137.4,113.1,137.3,113.3"/>
	</g>
</g>
</svg>
